<?xml version="1.0" encoding="utf-8"?>
<svg viewBox="0 0 500 200" xmlns="http://www.w3.org/2000/svg">
  <path fill="#1D1D23" fill-opacity="1" d="M -3.59 40.548 L -2.128 29.058 C 5.065 6.88 47.067 -1.063 84.75 11.559 C 115.8 21.959 139.327 75.068 153.392 105.822 C 207.72 224.612 475.03 200.862 518.58 177.011 C 562.13 153.16 629.254 124.829 671.93 120.203 C 714.277 115.613 843.455 98.652 864.676 98.648 L 508.78 130.316 L 509.9 217.281 L 488.679 217.281 C 467.458 217.281 425.016 217.281 382.575 217.281 C 340.133 217.281 297.691 217.281 255.25 217.281 C 212.807 217.281 170.366 217.281 127.923 217.281 C 85.48 217.281 43.039 217.281 21.817 217.281 L 0.597 217.281 L -3.59 40.548 Z" style=""/>
</svg>