<svg id="Icons" fill="#fff" height="512" viewBox="0 0 74 74" width="512" xmlns="http://www.w3.org/2000/svg"><path d="m28.855 61.695a1 1 0 0 1 -.653-.243c-1.025-.885-25.119-21.834-26.164-36.98a15.868 15.868 0 0 1 4.295-12.029 15.706 15.706 0 0 1 11.394-5.067 15.066 15.066 0 0 1 11.128 5.044 15.064 15.064 0 0 1 11.128-5.044 15.706 15.706 0 0 1 11.394 5.067 15.868 15.868 0 0 1 4.295 12.028c-1.045 15.146-25.138 36.1-26.163 36.98a1 1 0 0 1 -.654.244zm-11.128-52.319a13.7 13.7 0 0 0 -9.932 4.432 13.89 13.89 0 0 0 -3.762 10.526c.9 12.99 20.921 31.531 24.822 35.025 3.9-3.5 23.925-22.041 24.821-35.025a13.89 13.89 0 0 0 -3.762-10.526 13.7 13.7 0 0 0 -9.932-4.432 13.2 13.2 0 0 0 -10.342 5.208 1.036 1.036 0 0 1 -1.571 0 13.2 13.2 0 0 0 -10.342-5.208z"/><path d="m48.432 66.624a1 1 0 0 1 -.653-.243 126.962 126.962 0 0 1 -12.086-12.281 1 1 0 0 1 1.523-1.3 126.056 126.056 0 0 0 11.216 11.488c3.591-3.226 20.77-19.213 21.54-30.4a12.005 12.005 0 0 0 -3.256-9.088 11.836 11.836 0 0 0 -8.578-3.826 10.82 10.82 0 0 0 -3.39.542 1 1 0 1 1 -.626-1.9 12.812 12.812 0 0 1 4.016-.642 13.843 13.843 0 0 1 10.04 4.461 13.984 13.984 0 0 1 3.789 10.595c-.913 13.261-21.985 31.581-22.881 32.354a1 1 0 0 1 -.654.24z"/></svg>