<svg xmlns="http://www.w3.org/2000/svg" xmlns:xlink="http://www.w3.org/1999/xlink" version="1.1" x="0px" y="0px" viewBox="0 0 64 80" style="enable-background:new 0 0 64 64;" xml:space="preserve"><g><path style="fill:#fff;" d="M10.04,15.07c-0.4-0.39-1.05-0.38-1.45,0.03c-3.1,3.21-3.1,8.44,0,11.65c0.2,0.21,0.47,0.31,0.74,0.31   c0.26,0,0.51-0.1,0.71-0.29c0.41-0.39,0.42-1.04,0.03-1.45c-2.34-2.43-2.34-6.38,0-8.8C10.46,16.11,10.45,15.47,10.04,15.07z"/><path style="fill:#fff;" d="M55.6,24.88c0.28-1.12,0.43-2.27,0.43-3.45c0-7.8-6.6-14.14-14.72-14.14c-5.72,0-10.84,3.18-13.25,8   c-2.43-4.77-7.53-7.92-13.21-7.92c-8.12,0-14.72,6.35-14.72,14.14c0,3.62,1.34,6.98,3.79,9.45c5.64,5.7,23.29,22.23,23.46,22.4   c0.2,0.18,0.45,0.28,0.7,0.28c0.25,0,0.5-0.09,0.7-0.28c0,0,2.44-2.3,5.81-5.49c4.44,4.19,9.08,8.49,9.16,8.56   c0.2,0.18,0.45,0.27,0.7,0.27c0.25,0,0.5-0.09,0.7-0.27c0.12-0.11,12.14-11.33,16-15.18c1.76-1.75,2.73-4.13,2.73-6.68   C63.87,29.81,60.31,25.81,55.6,24.88z M28.08,51.22c-3.35-3.14-17.74-16.66-22.71-21.69c-2.06-2.08-3.2-4.93-3.2-8.01   c0-6.67,5.69-12.1,12.68-12.1c5.72,0,10.75,3.69,12.23,8.97c0.12,0.44,0.53,0.75,0.98,0.75c0,0,0,0,0,0c0.46,0,0.86-0.31,0.98-0.75   c1.45-5.33,6.49-9.05,12.25-9.05c6.99,0,12.68,5.43,12.68,12.1c0,1.11-0.16,2.2-0.45,3.24c-0.02,0-0.03,0-0.05,0   c-3.82,0-7.26,2-9.06,5.07c-1.81-3.04-5.24-5.02-9.02-5.02c-5.73,0-10.39,4.44-10.39,9.9c0,2.54,0.95,4.9,2.68,6.63   c1.2,1.21,3.21,3.13,5.4,5.2C30.85,48.6,29.02,50.33,28.08,51.22z M59.7,39.8c-3.3,3.29-12.63,12.03-15.26,14.49   c-2.64-2.45-12-11.17-15.29-14.47c-1.35-1.35-2.09-3.19-2.09-5.19c0-4.33,3.74-7.86,8.34-7.86c3.77,0,7.08,2.4,8.05,5.83   c0.13,0.44,0.51,0.77,0.99,0.74c0.46,0,0.86-0.31,0.98-0.75c0.95-3.46,4.27-5.88,8.06-5.88c4.6,0,8.34,3.53,8.34,7.86   C61.82,36.58,61.07,38.44,59.7,39.8z"/><path style="fill:#fff;" d="M14.49,30.42c-0.4-0.4-1.05-0.4-1.45,0c-0.4,0.4-0.4,1.05,0,1.45l6.82,6.82c0.2,0.2,0.46,0.3,0.72,0.3   c0.26,0,0.52-0.1,0.72-0.3c0.4-0.4,0.4-1.05,0-1.45L14.49,30.42z"/></g></svg>