<svg xmlns="http://www.w3.org/2000/svg" fill="#fff" xmlns:xlink="http://www.w3.org/1999/xlink" version="1.1" preserveAspectRatio="none" x="0px" y="0px" viewBox="0 0 90 112.5"><defs><g id="a"><path fill="#000000" stroke="none" d=" M 23.95 17.55 Q 23.1724609375 17.4443359375 22.45 17.45 17.3361328125 17.4568359375 13.8 21 10.203125 24.58984375 10.2 29.65 10.202734375 30.9068359375 10.4 32 10.50625 32.4001953125 10.85 32.6 11.1953125 32.8560546875 11.6 32.75 11.999609375 32.694140625 12.2 32.35 12.45546875 32.0041015625 12.35 31.6 12.1970703125 30.6931640625 12.2 29.65 12.1970703125 25.4099609375 15.2 22.4 18.1638671875 19.4431640625 22.45 19.45 23.0275390625 19.45546875 23.65 19.55 24.06328125 19.603515625 24.4 19.35 24.7365234375 19.1046875 24.8 18.7 24.85390625 18.28671875 24.6 17.95 24.3546875 17.6138671875 23.95 17.55 M 82.05 40.4 Q 82.025390625 40.3759765625 82 40.35 80.3125 38.8658203125 78.35 38.15 L 78.3 38.15 Q 76.91796875 37.662890625 75.35 37.55 74.852734375 37.496875 74.3 37.5 69.491796875 37.4931640625 66.05 40.85 L 61 45.95 55.95 40.9 Q 53.6564453125 38.594921875 50.65 37.8 L 50.6 37.8 Q 49.21640625 37.5001953125 47.7 37.5 42.8400390625 37.4947265625 39.4 40.85 L 39.35 40.9 Q 35.9931640625 44.341796875 36 49.15 36.0001953125 51.119140625 36.6 52.9 L 36.6 52.9 Q 37.3544921875 55.368359375 39.35 57.45 L 39.4 57.45 60.55 78.3 Q 60.842578125 78.595703125 61.25 78.6 61.6583984375 78.5953125 61.95 78.3 L 82.6 57.45 82.6 57.45 Q 86.005078125 54.009765625 86 49.15 86.006640625 44.341796875 82.6 40.9 82.587890625 40.8615234375 82.55 40.8 82.278125 40.6123046875 82.05 40.4 M 81.25 42.35 Q 83.9931640625 45.2109375 84 49.15 83.994921875 53.1900390625 81.15 56.05 L 81.2 56.05 61.25 76.2 40.8 56.05 40.8 56.05 Q 39.1453125 54.3314453125 38.5 52.3 L 38.5 52.25 Q 37.999609375 50.7806640625 38 49.15 38.006640625 45.1755859375 40.8 42.3 L 40.8 42.3 Q 43.6775390625 39.5048828125 47.7 39.5 48.9705078125 39.499609375 50.15 39.75 52.643359375 40.405078125 54.55 42.3 L 60.3 48.05 Q 60.590234375 48.3484375 61 48.35 61.4234375 48.34765625 61.7 48.05 L 67.45 42.3 Q 70.3255859375 39.506640625 74.3 39.5 74.7470703125 39.5029296875 75.15 39.55 L 75.15 39.55 Q 76.49296875 39.641015625 77.65 40.05 L 77.65 40.05 Q 79.256640625 40.623046875 80.65 41.8 80.6732421875 41.826953125 80.7 41.85 80.9509765625 42.1130859375 81.25 42.35 M 48.95 42.6 Q 45.737109375 42.605859375 43.5 44.85 41.2021484375 47.1408203125 41.2 50.35 41.1974609375 51.1845703125 41.35 51.9 41.485546875 52.2939453125 41.85 52.5 42.2029296875 52.7197265625 42.6 52.6 42.993359375 52.51484375 43.2 52.15 43.4193359375 51.796484375 43.3 51.4 43.20234375 50.915625 43.2 50.35 43.1978515625 47.9591796875 44.9 46.25 46.562890625 44.594140625 48.95 44.6 49.24375 44.601171875 49.55 44.65 49.9755859375 44.76875 50.3 44.55 50.6796875 44.3275390625 50.75 43.9 50.869140625 43.523828125 50.65 43.15 50.428125 42.820703125 50 42.7 49.4560546875 42.598828125 48.95 42.6 M 85.4 35.05 Q 86.0015625 32.7302734375 86 30.2 85.9955078125 22.441015625 80.5 16.9 75.0115234375 11.4044921875 67.2 11.4 59.3884765625 11.4044921875 53.9 16.9 L 45 25.8 36.15 16.9 Q 32.4017578125 13.1482421875 27.6 11.95 25.3302734375 11.3978515625 22.85 11.4 15.0400390625 11.40546875 9.5 16.9 4.0044921875 22.441015625 4 30.2 4.0005859375 33.370703125 4.95 36.2 L 4.95 36.2 Q 6.2171875 40.221875 9.5 43.5 L 44.75 78.3 Q 45.042578125 78.595703125 45.45 78.6 45.858984375 78.5947265625 46.15 78.3 L 49.9 74.5 Q 50.196484375 74.2107421875 50.2 73.8 50.196484375 73.3892578125 49.9 73.1 49.6107421875 72.803515625 49.2 72.8 48.7892578125 72.803515625 48.5 73.1 L 45.45 76.2 10.9 42.1 Q 7.9828125 39.178125 6.85 35.6 L 6.85 35.55 Q 5.99921875 33.029296875 6 30.2 5.9955078125 23.2587890625 10.9 18.3 15.859765625 13.39453125 22.85 13.4 25.06953125 13.4021484375 27.1 13.9 L 27.1 13.9 Q 31.4072265625 14.9607421875 34.75 18.3 L 44.3 27.9 Q 44.590625 28.19765625 45 28.2 45.4087890625 28.19765625 45.7 27.9 L 55.3 18.3 Q 60.2115234375 13.3955078125 67.2 13.4 74.1884765625 13.3955078125 79.1 18.3 84.0044921875 23.2587890625 84 30.2 83.9984375 32.4697265625 83.45 34.55 83.3806640625 34.946484375 83.6 35.3 83.806640625 35.66484375 84.2 35.75 84.5970703125 35.8697265625 84.95 35.65 85.3142578125 35.4439453125 85.4 35.05 Z"/></g></defs><g transform="matrix( 1, 0, 0, 1, 0,0) "><use xlink:href="#a"/></g><text x="0" y="105" fill="#000000" font-size="5px" font-weight="bold" font-family="'Helvetica Neue', Helvetica, Arial-Unicode, Arial, Sans-serif">Created by iconpacks</text><text x="0" y="110" fill="#000000" font-size="5px" font-weight="bold" font-family="'Helvetica Neue', Helvetica, Arial-Unicode, Arial, Sans-serif">from the Noun Project</text></svg>