<?xml version="1.0" encoding="utf-8"?>
<svg viewBox="0 0 500 200" xmlns="http://www.w3.org/2000/svg">
  <path fill="#1d1d23" fill-opacity="1" d="M -181.684 77.299 L -121.631 71.999 C -50.512 77.477 95.402 -64.877 215.21 40.421 C 335.018 145.719 309.339 175.606 430.401 191.369 C 616.73 215.631 768.862 185.805 897.011 221.293 C 1025.16 256.781 1137.276 194.294 1197.375 183.994 L 1257.478 173.295 L 1259.282 -18.697 L 1199.279 -18.697 C 1139.276 -18.697 1019.271 -18.697 899.266 -18.697 C 779.261 -18.697 659.255 -18.697 539.25 -18.697 C 419.245 -18.697 299.239 -18.697 179.234 -18.697 C 59.229 -18.697 -60.776 -18.697 -120.779 -18.697 L -180.782 -18.697 L -181.684 77.299 Z" style=""/>
</svg>